<?xml version="1.0" standalone="no"?>
<!DOCTYPE svg PUBLIC "-//W3C//DTD SVG 20010904//EN"
 "http://www.w3.org/TR/2001/REC-SVG-20010904/DTD/svg10.dtd">
<svg version="1.0" xmlns="http://www.w3.org/2000/svg"
 width="442.000000pt" height="130.000000pt" viewBox="0 0 442.000000 130.000000"
 preserveAspectRatio="xMidYMid meet">

<g transform="translate(0.000000,130.000000) scale(0.100000,-0.100000)"
fill="#000000" stroke="none">
<path d="M1 1163 c1 -108 3 -128 10 -93 18 94 94 178 191 211 l53 18 -127 1
-128 0 1 -137z"/>
<path d="M1085 1286 c89 -28 143 -74 186 -156 l24 -45 0 -425 c0 -393 -1 -429
-19 -474 -33 -85 -96 -142 -191 -172 -34 -11 21 -13 350 -13 338 0 384 2 342
13 -100 27 -185 116 -206 216 -15 68 -15 771 0 839 21 99 93 178 192 212 52
18 49 18 -333 18 -325 0 -379 -2 -345 -13z"/>
<path d="M2657 1281 c99 -34 171 -113 192 -212 15 -67 15 -771 0 -838 -21 -99
-93 -178 -192 -212 -52 -18 -49 -18 333 -18 382 0 385 0 333 18 -99 34 -171
113 -192 212 -15 67 -15 771 0 838 21 99 93 178 192 212 52 18 49 18 -333 18
-382 0 -385 0 -333 -18z"/>
<path d="M4217 1281 c96 -33 163 -104 189 -199 12 -45 13 -40 13 86 l1 132
-127 0 -128 -1 52 -18z"/>
<path d="M405 1081 c-77 -20 -151 -86 -176 -157 -20 -55 -20 -493 0 -548 17
-49 73 -111 125 -139 39 -21 53 -22 296 -22 242 0 257 1 295 21 51 28 91 68
119 119 20 38 21 53 21 295 0 242 -1 257 -21 295 -28 51 -68 91 -119 118 -37
21 -56 22 -275 24 -129 1 -248 -2 -265 -6z m511 -83 c43 -23 81 -71 94 -116
13 -48 13 -416 0 -464 -6 -21 -22 -51 -37 -68 -48 -58 -59 -60 -323 -60 -269
0 -277 2 -327 67 l-28 36 0 258 c0 245 1 259 21 285 28 38 65 64 105 74 19 5
131 8 249 7 181 -2 220 -5 246 -19z"/>
<path d="M844 915 c-26 -39 -6 -75 41 -75 28 0 38 5 47 25 15 32 -12 75 -47
75 -15 0 -31 -10 -41 -25z"/>
<path d="M553 849 c-85 -42 -127 -118 -121 -215 7 -113 87 -194 198 -202 71
-5 120 10 167 51 94 83 98 244 7 329 -64 60 -173 76 -251 37z m191 -82 c84
-65 68 -205 -28 -251 -72 -34 -154 -9 -193 60 -29 50 -29 98 0 148 45 79 147
99 221 43z"/>
<path d="M3658 1037 c-103 -39 -182 -110 -227 -206 -22 -48 -26 -69 -26 -151
0 -78 4 -104 24 -148 l24 -52 -33 -91 c-18 -50 -30 -93 -27 -95 3 -3 48 8 101
24 l96 30 48 -18 c144 -54 301 -22 407 85 181 181 128 489 -104 602 -46 23
-71 28 -151 30 -62 2 -108 -1 -132 -10z m247 -66 c62 -28 130 -94 162 -160 23
-46 28 -69 28 -131 -1 -97 -28 -161 -99 -228 -97 -92 -231 -116 -350 -64 -46
21 -50 21 -103 6 -30 -9 -56 -14 -58 -12 -3 2 3 27 12 55 16 51 16 52 -10 111
-45 99 -36 212 23 305 79 125 258 179 395 118z"/>
<path d="M3610 818 c-11 -18 -20 -42 -20 -53 1 -40 41 -107 97 -164 47 -46 71
-62 125 -80 75 -25 109 -21 138 16 29 38 25 51 -25 75 l-45 22 -23 -22 c-13
-12 -30 -22 -39 -22 -21 0 -94 54 -114 86 -16 24 -16 27 -1 54 16 26 16 30 -4
74 -25 58 -59 63 -89 14z"/>
<path d="M2216 1020 c-67 -21 -106 -87 -106 -182 l0 -48 -35 0 -35 0 0 -75 0
-75 35 0 35 0 0 -195 0 -195 75 0 75 0 0 195 0 195 59 0 58 0 7 46 c3 26 6 59
6 75 0 27 -2 28 -57 31 l-58 3 -3 38 c-4 53 11 67 69 67 l49 0 0 65 0 65 -72
-1 c-40 0 -86 -5 -102 -9z"/>
<path d="M1 138 l-1 -138 133 1 c123 0 129 1 87 13 -110 29 -188 112 -210 219
-6 31 -8 6 -9 -95z"/>
<path d="M4406 221 c-13 -86 -107 -181 -203 -207 -46 -12 -43 -13 85 -13 l132
-1 0 130 c0 72 -2 130 -4 130 -2 0 -6 -17 -10 -39z"/>
</g>
</svg>
